<svg width="27" height="18" viewBox="0 0 27 18" fill="none" xmlns="http://www.w3.org/2000/svg">
<g clip-path="url(#clip0_490_9920)">
<path fill-rule="evenodd" clip-rule="evenodd" d="M13.2563 4.0002C13.4405 4.0002 13.6697 4.092 13.9457 4.3674L19.3229 9.744C20.1953 10.6176 19.6901 11.304 18.5429 11.2146H13.2563L16.4273 14.4774H23.1827C25.2509 14.5692 26.9027 12.639 24.8375 10.6632L15.4175 1.2876C14.6321 0.5058 13.9457 0 13.2563 0C12.5669 0 11.8763 0.5058 11.0963 1.2876L1.67634 10.6626C-0.39126 12.6384 1.26234 14.5686 3.33054 14.4762H10.0853L13.2563 11.214H7.97154C6.82254 11.3058 6.31674 10.614 7.19154 9.7434L12.5681 4.3674C12.8435 4.092 13.0739 4.0002 13.2575 4.0002" fill="#2A58A3"/>
<path fill-rule="evenodd" clip-rule="evenodd" d="M13.2239 7.13525C13.6103 7.13502 13.988 7.24936 14.3094 7.46383C14.6308 7.6783 14.8814 7.98325 15.0295 8.34013C15.1776 8.69702 15.2165 9.0898 15.1414 9.46881C15.0662 9.84781 14.8804 10.196 14.6073 10.4694C14.3343 10.7428 13.9863 10.9291 13.6074 11.0047C13.2285 11.0803 12.8356 11.0418 12.4786 10.8942C12.1215 10.7466 11.8163 10.4963 11.6014 10.1752C11.3865 9.85408 11.2717 9.47644 11.2715 9.09005C11.2716 8.57224 11.4774 8.07567 11.8435 7.70946C12.2096 7.34326 12.7061 7.13737 13.2239 7.13705" fill="#E6363B"/>
<path fill-rule="evenodd" clip-rule="evenodd" d="M13.2354 18.0001H23.1156C24.7242 17.9539 25.1382 17.5405 26.4708 14.9209C24.6324 16.6669 24.219 16.7587 23.1156 16.7587H3.3552C2.2524 16.7587 1.8384 16.6669 0 14.9209C1.3326 17.5405 1.7466 17.9539 3.3552 18.0001H13.2354Z" fill="#2A58A3"/>
<path d="M21.7921 16.0588H22.0921V16.2652H21.7921V16.0588ZM21.7921 15.4636H22.0921V15.6706H21.7921V15.4636ZM19.9099 15.8944C19.9099 15.5602 20.4241 15.5824 20.4241 15.5824L20.4841 15.7294C20.4325 15.7168 20.1691 15.712 20.1583 15.8932C20.16 15.9394 20.1799 15.9831 20.2136 16.0148C20.2473 16.0465 20.2921 16.0636 20.3383 16.0624H20.3491C20.3943 16.065 20.4394 16.0571 20.481 16.0394C20.5226 16.0218 20.5596 15.9947 20.5891 15.9604V15.4636H19.7551V15.3166H21.6001V15.4636H20.8405V15.6844C20.9155 15.6281 21.0078 15.5997 21.1015 15.604C21.3169 15.604 21.4981 15.7378 21.4981 15.898C21.4981 16.1068 21.2035 16.297 21.2035 16.297L21.0139 16.1962C21.0199 16.1962 21.2467 16.0576 21.2467 15.9016C21.2462 15.881 21.2416 15.8607 21.2331 15.8418C21.2247 15.8229 21.2127 15.8059 21.1977 15.7917C21.1827 15.7775 21.1651 15.7664 21.1458 15.759C21.1265 15.7516 21.1059 15.7481 21.0853 15.7486H21.0763C21.0306 15.7535 20.9864 15.7677 20.9463 15.7903C20.9063 15.8129 20.8713 15.8434 20.8435 15.88V16.4146H20.5885V16.1572C20.3065 16.2904 19.9099 16.1698 19.9099 15.8962V15.8944ZM19.7197 14.854V14.9638C19.6748 14.9493 19.6276 14.9436 19.5805 14.947C19.3201 14.947 19.3477 15.2716 19.5523 15.3148H19.3879C19.3363 15.2926 19.1977 15.172 19.2037 15.0622C19.2091 14.8684 19.5037 14.7586 19.7197 14.8558V14.854ZM19.0879 15.3172H19.7143V15.4648H19.5673V16.411H19.3057V15.463H19.0903V15.316L19.0879 15.3172ZM18.6031 15.664C18.6379 15.6675 18.6731 15.6625 18.7056 15.6497C18.7381 15.6369 18.7672 15.6165 18.7903 15.5902C18.8077 15.4486 18.4363 15.3922 18.4363 15.5602C18.4393 15.6226 18.5185 15.664 18.6031 15.664ZM17.9881 15.319H19.0849V15.466H18.9517C19.1845 15.7006 18.9685 16.0498 18.5839 16.072C18.5947 16.072 18.6775 16.132 18.7399 16.1692C18.8503 16.2292 18.9493 16.285 18.9547 16.2892L18.8077 16.4242C18.5533 16.327 18.3367 16.1416 18.1393 15.991L18.3031 15.871L18.3991 15.931C18.4336 15.9471 18.4723 15.9515 18.5095 15.9436C18.7363 15.907 18.7735 15.8062 18.7789 15.7582C18.5155 15.8944 18.0991 15.6982 18.2551 15.4642H17.9941L17.9881 15.319ZM16.5595 15.319H17.9935V15.466H17.7217V15.766H17.1187C17.0838 15.762 17.0487 15.772 17.0211 15.7938C16.9935 15.8156 16.9758 15.8475 16.9717 15.8824V15.8884C16.9717 16.087 17.3425 16.1578 17.4163 16.1194C17.4155 16.0953 17.4196 16.0712 17.4282 16.0487C17.4369 16.0262 17.4501 16.0056 17.4669 15.9883C17.4836 15.9709 17.5038 15.9571 17.526 15.9477C17.5482 15.9383 17.5722 15.9334 17.5963 15.9334H17.6179C17.8105 15.9334 17.8441 16.1614 17.6743 16.207C17.6947 16.2463 17.7194 16.2831 17.7481 16.3168C17.7877 16.3708 17.8591 16.4488 17.8591 16.4488H17.5921C17.5921 16.4488 17.5495 16.3888 17.5267 16.351C17.5039 16.3132 17.4985 16.2952 17.4817 16.2676C17.4703 16.2718 16.7143 16.2952 16.7191 15.871C16.7191 15.7348 16.8841 15.6232 17.0737 15.6232H17.4601V15.4636H16.5601V15.3166L16.5595 15.319ZM16.1185 15.9676V16.0948L15.4897 16.4092L15.3427 16.267L16.1185 15.9676ZM15.8617 16.1008C15.5245 16.0966 15.4165 15.8662 15.4165 15.8008V15.4648H15.2287V15.3178H16.5301V15.4648H16.3831V16.411H16.1281V16.051C16.0474 16.0923 15.957 16.111 15.8665 16.105L15.8617 16.1008ZM16.1251 15.463H15.6763V15.808C15.6763 15.8872 15.7327 15.9628 15.8767 15.9676C15.9242 15.9679 15.9712 15.9582 16.0147 15.9392C16.0582 15.9202 16.0973 15.8923 16.1293 15.8572L16.1251 15.463ZM14.5981 15.316H15.2239V15.463H15.0763V16.4092H14.8153V15.463H14.6011V15.316H14.5981ZM14.0677 15.5998V15.727C14.0077 15.7318 13.7191 15.706 13.7191 15.5116C13.7191 15.3808 13.8889 15.2914 14.0791 15.2962C14.3257 15.2962 14.5333 15.4498 14.5333 15.631C14.5333 15.8122 14.2933 15.976 14.0623 15.967C14.0623 15.967 14.1361 16.081 14.3485 16.0762C14.442 16.0723 14.5338 16.0497 14.6185 16.0099C14.7032 15.97 14.7791 15.9136 14.8417 15.844V16.084C14.4421 16.3402 13.7965 16.2136 13.6861 15.8062C13.7647 15.8249 13.8453 15.8342 13.9261 15.8338C14.0905 15.8338 14.2801 15.7738 14.2801 15.6136C14.2814 15.5677 14.2646 15.523 14.2333 15.4894C14.2019 15.4557 14.1586 15.4357 14.1127 15.4336C14.1023 15.4328 14.0919 15.4328 14.0815 15.4336C13.9195 15.4396 13.9135 15.6028 14.0749 15.6028L14.0677 15.5998ZM13.0045 16.1002C12.6679 16.0966 12.5635 15.8656 12.5635 15.8002V15.4672H12.3763V15.3202H13.6765V15.4672H13.5295V16.4134H13.2745V16.0534C13.1925 16.0954 13.1006 16.1141 13.0087 16.1074L13.0045 16.1002ZM13.2685 15.4624H12.8149V15.8074C12.8149 15.8866 12.8713 15.9622 13.0165 15.967C13.0639 15.9672 13.1108 15.9575 13.1542 15.9385C13.1976 15.9195 13.2365 15.8916 13.2685 15.8566V15.4624ZM10.7815 16.0624H11.0815V16.2688H10.7815V16.0624ZM10.7815 15.4672H11.0815V15.6742H10.7815V15.4672ZM8.8969 15.8998C8.8969 15.565 9.4117 15.5872 9.4117 15.5872L9.4717 15.7342C9.4201 15.7216 9.1567 15.7174 9.1453 15.898C9.14675 15.9212 9.15275 15.9438 9.16294 15.9646C9.17314 15.9854 9.18733 16.004 9.20472 16.0193C9.2221 16.0346 9.24234 16.0464 9.26426 16.0539C9.28619 16.0614 9.30938 16.0645 9.3325 16.063H9.3409C9.38605 16.066 9.43127 16.0584 9.47294 16.0408C9.51462 16.0232 9.55159 15.9961 9.5809 15.9616V15.4672H8.7445V15.3202H10.5883V15.4672H9.8293V15.688C9.90412 15.6318 9.9962 15.6034 10.0897 15.6076C10.3051 15.6076 10.4869 15.7414 10.4869 15.9016C10.4869 16.1104 10.1869 16.3006 10.1869 16.3006L9.9979 16.1938C10.0033 16.1938 10.2301 16.0552 10.2301 15.8998C10.229 15.8581 10.2114 15.8185 10.1811 15.7897C10.1509 15.7609 10.1105 15.7453 10.0687 15.7462H10.0603C10.0147 15.7512 9.97058 15.7654 9.93065 15.788C9.89073 15.8106 9.85583 15.8411 9.8281 15.8776V16.4122H9.5725V16.1548C9.3001 16.2904 8.8969 16.1698 8.8969 15.8962V15.8998ZM7.3135 15.3226H8.7415V15.4696H8.5945V16.4158H8.3329V15.8548H7.8793V16.0018C7.88033 16.0103 7.87953 16.0189 7.87698 16.027C7.87443 16.0352 7.87017 16.0426 7.86449 16.049C7.85882 16.0554 7.85185 16.0604 7.84406 16.0639C7.83627 16.0673 7.82783 16.0691 7.8193 16.069C7.81412 16.0696 7.80889 16.0696 7.8037 16.069C7.7155 16.0648 7.4605 15.829 7.4605 15.778C7.4605 15.7048 7.5541 15.7048 7.5655 15.7048H8.3281V15.4648H7.3141L7.3135 15.3226ZM6.6811 15.3226H7.3075V15.4696H7.1605V16.4158H6.9001V15.463H6.6841L6.6811 15.3226ZM6.2761 15.4696H5.8477V15.793H6.2785L6.2761 15.4696ZM5.2561 15.3226H6.6841V15.4696H6.5401V16.4158H6.2761V15.9358H5.8477V16.063C5.84778 16.0727 5.84597 16.0822 5.84236 16.0911C5.83876 16.1 5.83343 16.1081 5.82669 16.115C5.81995 16.1218 5.81192 16.1273 5.80307 16.131C5.79422 16.1348 5.78472 16.1368 5.7751 16.1368H5.7655C5.6923 16.1368 5.3977 15.8968 5.3977 15.85C5.3977 15.8032 5.4913 15.796 5.4973 15.796H5.5963V15.4678H5.2561V15.3226Z" fill="#E6363B"/>
</g>
<defs>
<clipPath id="clip0_490_9920">
<rect width="26.4708" height="18" fill="white"/>
</clipPath>
</defs>
</svg>
